<svg width="32" height="32" viewBox="0 0 32 32" fill="none" xmlns="http://www.w3.org/2000/svg">
<path d="M11.28 16.9468L18.8267 24.4801C18.9506 24.6051 19.0981 24.7043 19.2606 24.772C19.423 24.8397 19.5973 24.8745 19.7733 24.8745C19.9494 24.8745 20.1236 24.8397 20.2861 24.772C20.4486 24.7043 20.5961 24.6051 20.72 24.4801C20.9683 24.2303 21.1077 23.8924 21.1077 23.5401C21.1077 23.1879 20.9683 22.8499 20.72 22.6001L14.12 15.9334L20.72 9.33345C20.9683 9.08363 21.1077 8.7457 21.1077 8.39345C21.1077 8.0412 20.9683 7.70327 20.72 7.45345C20.5965 7.32746 20.4493 7.22724 20.2868 7.15858C20.1243 7.08991 19.9497 7.05418 19.7733 7.05345C19.5969 7.05418 19.4224 7.08991 19.2599 7.15858C19.0974 7.22724 18.9502 7.32746 18.8267 7.45345L11.28 14.9868C11.1447 15.1116 11.0367 15.2632 10.9628 15.4318C10.8889 15.6005 10.8508 15.7826 10.8508 15.9668C10.8508 16.1509 10.8889 16.3331 10.9628 16.5017C11.0367 16.6704 11.1447 16.8219 11.28 16.9468V16.9468Z" fill="white"/>
</svg>
