<svg width="32" height="32" viewBox="0 0 32 32" fill="none" xmlns="http://www.w3.org/2000/svg">
<path d="M20.7201 15.0532L13.1734 7.51989C13.0494 7.39491 12.902 7.29572 12.7395 7.22803C12.577 7.16034 12.4027 7.12549 12.2267 7.12549C12.0507 7.12549 11.8764 7.16034 11.714 7.22803C11.5515 7.29572 11.404 7.39491 11.2801 7.51989C11.0317 7.7697 10.8923 8.10764 10.8923 8.45989C10.8923 8.81213 11.0317 9.15007 11.2801 9.39989L17.8801 16.0666L11.2801 22.6666C11.0317 22.9164 10.8923 23.2543 10.8923 23.6066C10.8923 23.9588 11.0317 24.2967 11.2801 24.5466C11.4035 24.6725 11.5508 24.7728 11.7133 24.8414C11.8758 24.9101 12.0503 24.9458 12.2267 24.9466C12.4031 24.9458 12.5776 24.9101 12.7401 24.8414C12.9026 24.7728 13.0499 24.6725 13.1734 24.5466L20.7201 17.0132C20.8554 16.8884 20.9634 16.7368 21.0373 16.5682C21.1112 16.3995 21.1493 16.2174 21.1493 16.0332C21.1493 15.8491 21.1112 15.6669 21.0373 15.4983C20.9634 15.3296 20.8554 15.1781 20.7201 15.0532Z" fill="white"/>
</svg>
