<svg width="32" height="33" viewBox="0 0 32 33" fill="none" xmlns="http://www.w3.org/2000/svg">
<path d="M16 3.27734C8.63619 3.27734 2.66663 9.2469 2.66663 16.6107C2.66663 22.508 6.49955 27.5023 11.8068 29.2611C12.453 29.3619 12.7 28.9728 12.7 28.6277C12.7 28.311 12.6833 27.2611 12.6833 26.1444C9.33329 26.7611 8.4666 25.3277 8.19999 24.5777C7.90401 23.8483 7.43493 23.202 6.83329 22.6944C6.36665 22.4444 5.69999 21.8277 6.81661 21.811C7.68193 21.9049 8.44715 22.415 8.86667 23.1777C8.86797 23.1801 8.86927 23.1824 8.87057 23.1847C9.64003 24.5578 11.3768 25.0471 12.75 24.2777C12.8077 23.5998 13.1098 22.9661 13.6 22.4944C10.6333 22.161 7.53333 21.011 7.53333 15.911C7.51453 14.5858 8.00355 13.3038 8.89995 12.3277C8.49231 11.1759 8.54 9.91202 9.03332 8.79434C9.03332 8.79434 10.1499 8.44433 12.7 10.161C14.8817 9.56094 17.1849 9.56094 19.3667 10.161C21.9166 8.42764 23.0333 8.79434 23.0333 8.79434C23.5266 9.91202 23.5743 11.1759 23.1666 12.3277C24.0657 13.3021 24.5551 14.5853 24.5333 15.911C24.5333 21.0276 21.4166 22.161 18.45 22.4944C19.0939 23.1469 19.4223 24.0471 19.35 24.961C19.35 26.7444 19.3333 28.1777 19.3333 28.6277C19.3324 28.6987 19.343 28.7694 19.3647 28.8371C19.4756 29.1822 19.8449 29.372 20.1901 29.2621C25.499 27.5042 29.3333 22.5091 29.3333 16.6107C29.3333 9.2469 23.3637 3.27734 16 3.27734Z" fill="white"/>
</svg>
