<svg width="32" height="33" viewBox="0 0 32 33" fill="none" xmlns="http://www.w3.org/2000/svg">
<path d="M27.2909 3.16667H4.70918C3.64106 3.15381 2.76444 4.00879 2.75061 5.07691V27.9237C2.76452 28.9918 3.64114 29.8465 4.70918 29.8333H27.2909C28.3591 29.8466 29.2359 28.9916 29.2495 27.9234V5.07691C29.2358 4.00871 28.3591 3.15364 27.2909 3.16667ZM10.7841 25.4893H6.78137V13.448H10.7841V25.4893ZM9.11104 11.8061C9.00174 11.814 8.89205 11.8133 8.78292 11.804H8.75662C7.60657 11.8734 6.61804 10.9973 6.5487 9.84725C6.47937 8.69719 7.35542 7.70867 8.50549 7.63933C8.60673 7.63323 8.70837 7.63453 8.80945 7.64316C9.95902 7.55991 10.9584 8.42433 11.0417 9.57391C11.125 10.7234 10.2605 11.7228 9.11104 11.8061ZM25.2156 25.4893H21.2136V19.0482C21.2136 17.4292 20.6341 16.3251 19.1861 16.3251C18.2611 16.3305 17.4392 16.9164 17.1324 17.7891C17.03 18.104 16.9853 18.4347 17.0006 18.7655V25.4893H12.9986C12.9986 25.4857 13.0511 14.5776 12.999 13.4482H17.001V15.1548C17.7386 13.8712 19.129 13.1044 20.6081 13.1656C23.2413 13.1656 25.2156 14.8866 25.2156 18.5851V25.4893H25.2156Z" fill="white"/>
</svg>
